G04 PROTEUS GERBER X2 FILE*
%TF.GenerationSoftware,Labcenter,Proteus,8.15-SP1-Build34318*%
%TF.CreationDate,2024-05-31T17:08:22+00:00*%
%TF.FileFunction,Plated,1,2,PTH*%
%TF.FilePolarity,Positive*%
%TF.Part,Single*%
%TF.SameCoordinates,{d94dc138-55aa-45cc-9808-558e63c1a8c6}*%
%FSLAX45Y45*%
%MOMM*%
G01*
%TA.AperFunction,ViaDrill*%
%ADD50C,0.381000*%
%TA.AperFunction,ComponentDrill*%
%ADD51C,0.762000*%
%TA.AperFunction,ComponentDrill*%
%ADD52C,1.270000*%
%ADD53C,1.143000*%
%TA.AperFunction,ComponentDrill*%
%ADD54C,1.016000*%
%TA.AperFunction,ViaDrill*%
%ADD55C,3.100000*%
%TA.AperFunction,OtherDrill,Unknown*%
%ADD56C,3.200000*%
%ADD57C,3.100000*%
%ADD58C,0.254000*%
%TD.AperFunction*%
D50*
X+5469280Y-759460D03*
X+4469610Y-882387D03*
X+4313580Y-622300D03*
D51*
X+2341090Y-369307D03*
X+2341090Y-623307D03*
X+2341090Y-877307D03*
X+2341090Y-1131307D03*
X+2341090Y-1385307D03*
X+2341090Y-1639307D03*
X+2341090Y-1893307D03*
X+2341090Y-2147307D03*
X+2341090Y-2401307D03*
X+2341090Y-2655307D03*
X+2341090Y-2909307D03*
X+2341090Y-3163307D03*
X+2341090Y-3417307D03*
X+2341090Y-3671307D03*
X+2341090Y-3925307D03*
X+3865090Y-3925307D03*
X+3865090Y-3671307D03*
X+3865090Y-3417307D03*
X+3865090Y-3163307D03*
X+3865090Y-2909307D03*
X+3865090Y-2655307D03*
X+3865090Y-2401307D03*
X+3865090Y-2147307D03*
X+3865090Y-1893307D03*
X+3865090Y-1639307D03*
X+3865090Y-1385307D03*
X+3865090Y-1131307D03*
X+3865090Y-877307D03*
X+3865090Y-623307D03*
X+3865090Y-369307D03*
D52*
X+1956980Y-6742866D03*
X+1956980Y-6234866D03*
X+3226980Y-6742866D03*
X+3226980Y-6234866D03*
X+3867060Y-6744163D03*
X+3867060Y-6236163D03*
X+5137060Y-6744163D03*
X+5137060Y-6236163D03*
X+5777140Y-6744163D03*
X+5777140Y-6236163D03*
X+7047140Y-6744163D03*
X+7047140Y-6236163D03*
D51*
X+2873000Y-5656543D03*
X+3127000Y-5656543D03*
X+4257300Y-5656543D03*
X+4511300Y-5656543D03*
X+5423160Y-5659083D03*
X+5677160Y-5659083D03*
X+2627360Y-5133680D03*
X+3389360Y-5133680D03*
X+3884320Y-4442460D03*
X+3884320Y-5204460D03*
X+4276016Y-4905959D03*
X+4276016Y-3889959D03*
X+3589940Y-4448623D03*
X+3589940Y-5464623D03*
X+4275857Y-5137680D03*
X+5291857Y-5137680D03*
X+1802610Y-877767D03*
X+1802610Y-623767D03*
X+1802610Y-1276547D03*
X+1802610Y-2292547D03*
X+1217660Y-2288880D03*
X+1217660Y-1272880D03*
X+468360Y-257610D03*
X+468360Y-1273610D03*
X+67790Y-2483047D03*
X+67790Y-2229047D03*
X+66700Y-1275080D03*
X+66700Y-1021080D03*
X+6382129Y-5660136D03*
X+6636129Y-5660136D03*
X+6890129Y-5660136D03*
X+7144129Y-5660136D03*
X+5367680Y-4406900D03*
X+4605680Y-4406900D03*
X+4491380Y-3672840D03*
X+5253380Y-3672840D03*
X+2744000Y-4655680D03*
X+2998000Y-4655680D03*
X+3252000Y-4655680D03*
X+3182620Y-2402840D03*
X+2663709Y-3421260D03*
X+28200Y-5424203D03*
X+28200Y-5678203D03*
X+1601840Y-4692197D03*
X+1347840Y-4692197D03*
X+1093840Y-4692197D03*
X+2440280Y-5624920D03*
X+1424280Y-5624920D03*
X+3569700Y-2402840D03*
X+3569700Y-3418840D03*
X+1857120Y-4908337D03*
X+2873120Y-4908337D03*
X+3185160Y-2115820D03*
X+3185160Y-1099820D03*
X+3569237Y-1099820D03*
X+3569237Y-2115820D03*
X+7276210Y-709007D03*
X+7530210Y-709007D03*
X+7784210Y-709007D03*
X+8038210Y-709007D03*
X+8038210Y+52993D03*
X+7784210Y+52993D03*
X+7530210Y+52993D03*
X+7276210Y+52993D03*
X+6910750Y-702007D03*
X+6910750Y-194007D03*
X+8624150Y-1166940D03*
X+8370150Y-1166940D03*
X+7655676Y-1223827D03*
X+7909676Y-1223827D03*
X+8370150Y-86753D03*
X+8370150Y-594753D03*
D53*
X+8917800Y-4767360D03*
X+8917800Y-5275360D03*
X+8917800Y-5783360D03*
X+8917800Y-6291360D03*
D54*
X+8220000Y-6460000D03*
X+8220000Y-5444000D03*
X+7810000Y-5444000D03*
X+7810000Y-6460000D03*
X+8344870Y-4215307D03*
X+8598870Y-4215307D03*
X+8852870Y-4215307D03*
D55*
X+8594870Y-2505307D03*
D51*
X+7579750Y-4612373D03*
X+7325750Y-4612373D03*
X+7071750Y-4612373D03*
X+7620810Y-3349307D03*
X+7620810Y-2333307D03*
X+7874810Y-3349307D03*
X+7874810Y-2333307D03*
X+7076270Y-4086427D03*
X+7076270Y-3832427D03*
X+7076270Y-3578427D03*
X+7366810Y-2333307D03*
X+7366810Y-3349307D03*
X+6483310Y-4140447D03*
X+6483310Y-3886447D03*
X+6483310Y-3632447D03*
X+6483310Y-3378447D03*
X+6483310Y-3124447D03*
X+6483310Y-2870447D03*
X+6483310Y-2616447D03*
X+5721310Y-2616447D03*
X+5721310Y-2870447D03*
X+5721310Y-3124447D03*
X+5721310Y-3378447D03*
X+5721310Y-3632447D03*
X+5721310Y-3886447D03*
X+5721310Y-4140447D03*
X+5709890Y-1730227D03*
X+5963890Y-1730227D03*
X+6217890Y-1730227D03*
X+6471890Y-1730227D03*
X+6471890Y-968227D03*
X+6217890Y-968227D03*
X+5963890Y-968227D03*
X+5709890Y-968227D03*
X+301990Y-3512047D03*
X+301990Y-3766047D03*
X+301990Y-4020047D03*
X+301990Y-4274047D03*
X+1063990Y-4274047D03*
X+1063990Y-4020047D03*
X+1063990Y-3766047D03*
X+1063990Y-3512047D03*
X+6913850Y-1529567D03*
X+6913850Y-1021567D03*
X+6470953Y-195410D03*
X+5962953Y-195410D03*
X+6236930Y-4577327D03*
X+5728930Y-4577327D03*
X+428990Y-3067547D03*
X+936990Y-3067547D03*
X+4963410Y-1981187D03*
X+4963410Y-965187D03*
X+4706590Y-968227D03*
X+4706590Y-1984227D03*
X+5201890Y-536427D03*
X+6217890Y-536427D03*
X+1374110Y-2705587D03*
X+358110Y-2705587D03*
X+1375370Y-3005067D03*
X+1375370Y-4021067D03*
X+1662150Y-3006347D03*
X+1662150Y-4022347D03*
X+1946630Y-3003807D03*
X+1946630Y-4019807D03*
X+5259030Y-3378447D03*
X+5259030Y-2870447D03*
X+4804370Y-3378447D03*
X+4804370Y-2870447D03*
D56*
X+0Y-7000000D03*
X+0Y+0D03*
X+9000000Y+0D03*
X+9000000Y-7000000D03*
D57*
X+600000Y-4900000D03*
X+600000Y-1800000D03*
X+8100000Y-4900000D03*
X+8100000Y-1800000D03*
D58*
X+600000Y+330000D03*
X+700000Y+330000D03*
X+800000Y+330000D03*
X+900000Y+330000D03*
X+1000000Y+330000D03*
X+1100000Y+330000D03*
X+1200000Y+330000D03*
X+1300000Y+330000D03*
X+1400000Y+330000D03*
X+1500000Y+330000D03*
X+1600000Y+330000D03*
X+1700000Y+330000D03*
X+1800000Y+330000D03*
X+1900000Y+330000D03*
X+2000000Y+330000D03*
X+2100000Y+330000D03*
X+2200000Y+330000D03*
X+2300000Y+330000D03*
X+2400000Y+330000D03*
X+2500000Y+330000D03*
X+2600000Y+330000D03*
X+2700000Y+330000D03*
X+2800000Y+330000D03*
X+2900000Y+330000D03*
X+3000000Y+330000D03*
X+3100000Y+330000D03*
X+3200000Y+330000D03*
X+3300000Y+330000D03*
X+3400000Y+330000D03*
X+3500000Y+330000D03*
X+3600000Y+330000D03*
X+3700000Y+330000D03*
X+3800000Y+330000D03*
X+3900000Y+330000D03*
X+4000000Y+330000D03*
X+4100000Y+330000D03*
X+4200000Y+330000D03*
X+4300000Y+330000D03*
X+4400000Y+330000D03*
X+4500000Y+330000D03*
X+4600000Y+330000D03*
X+4700000Y+330000D03*
X+4800000Y+330000D03*
X+4900000Y+330000D03*
X+5000000Y+330000D03*
X+5100000Y+330000D03*
X+5200000Y+330000D03*
X+5300000Y+330000D03*
X+5400000Y+330000D03*
X+5500000Y+330000D03*
X+5600000Y+330000D03*
X+5700000Y+330000D03*
X+5800000Y+330000D03*
X+5900000Y+330000D03*
X+6000000Y+330000D03*
X+6100000Y+330000D03*
X+6200000Y+330000D03*
X+6300000Y+330000D03*
X+6400000Y+330000D03*
X+6500000Y+330000D03*
X+6600000Y+330000D03*
X+6700000Y+330000D03*
X+6800000Y+330000D03*
X+6900000Y+330000D03*
X+7000000Y+330000D03*
X+7100000Y+330000D03*
X+7200000Y+330000D03*
X+7300000Y+330000D03*
X+7400000Y+330000D03*
X+7500000Y+330000D03*
X+7600000Y+330000D03*
X+7700000Y+330000D03*
X+7800000Y+330000D03*
X+7900000Y+330000D03*
X+8000000Y+330000D03*
X+8100000Y+330000D03*
X+8200000Y+330000D03*
X+8300000Y+330000D03*
X+8400000Y+330000D03*
X+8500000Y+330000D03*
X+8600000Y+330000D03*
X+8700000Y+330000D03*
X+8800000Y+330000D03*
X+8900000Y+330000D03*
X+9000000Y+330000D03*
X-330000Y+0D03*
X-330000Y-100000D03*
X-330000Y-200000D03*
X-330000Y-300000D03*
X-330000Y-400000D03*
X-330000Y-500000D03*
X-330000Y-600000D03*
X-330000Y-700000D03*
X-330000Y-800000D03*
X-330000Y-900000D03*
X-330000Y-1000000D03*
X-330000Y-1100000D03*
X-330000Y-1200000D03*
X-330000Y-1300000D03*
X-330000Y-1400000D03*
X-330000Y-1500000D03*
X-330000Y-1600000D03*
X-330000Y-1700000D03*
X-330000Y-1800000D03*
X-330000Y-1900000D03*
X-330000Y-2000000D03*
X-330000Y-2100000D03*
X-330000Y-2200000D03*
X-330000Y-2300000D03*
X-330000Y-2400000D03*
X-330000Y-2500000D03*
X-330000Y-2600000D03*
X-330000Y-2700000D03*
X-330000Y-2800000D03*
X-330000Y-2900000D03*
X-330000Y-3000000D03*
X-330000Y-3100000D03*
X-330000Y-3200000D03*
X-330000Y-3300000D03*
X-330000Y-3400000D03*
X-330000Y-3500000D03*
X-330000Y-3600000D03*
X-330000Y-3700000D03*
X-330000Y-3800000D03*
X-330000Y-3900000D03*
X-330000Y-4000000D03*
X-330000Y-4100000D03*
X-330000Y-4200000D03*
X-330000Y-4300000D03*
X-330000Y-4400000D03*
X-330000Y-4500000D03*
X-330000Y-4600000D03*
X-330000Y-4700000D03*
X-330000Y-4800000D03*
X-330000Y-4900000D03*
X-330000Y-5000000D03*
X-330000Y-5100000D03*
X-330000Y-5200000D03*
X-330000Y-5300000D03*
X-330000Y-5400000D03*
X-330000Y-5500000D03*
X-330000Y-5600000D03*
X-330000Y-5700000D03*
X-330000Y-5800000D03*
X-330000Y-5900000D03*
X-330000Y-6000000D03*
X-330000Y-6100000D03*
X-330000Y-7000000D03*
X+500000Y-7330000D03*
X+600000Y-7330000D03*
X+700000Y-7330000D03*
X+800000Y-7330000D03*
X+900000Y-7330000D03*
X+7300000Y-7330000D03*
X+7400000Y-7330000D03*
X+7500000Y-7330000D03*
X+7600000Y-7330000D03*
X+7700000Y-7330000D03*
X+7800000Y-7330000D03*
X+7900000Y-7330000D03*
X+8000000Y-7330000D03*
X+8100000Y-7330000D03*
X+8200000Y-7330000D03*
X+8300000Y-7330000D03*
X+8400000Y-7330000D03*
X+8500000Y-7330000D03*
X+8600000Y-7330000D03*
X+8700000Y-7330000D03*
X+8800000Y-7330000D03*
X+8900000Y-7330000D03*
X+9000000Y-7330000D03*
X+9330000Y-7000000D03*
X+9330000Y-6100000D03*
X+9330000Y-6000000D03*
X+9330000Y-5900000D03*
X+9330000Y-5800000D03*
X+9330000Y-5700000D03*
X+9330000Y-5600000D03*
X+9330000Y-5500000D03*
X+9330000Y-5400000D03*
X+9330000Y-5300000D03*
X+9330000Y-5200000D03*
X+9330000Y-5100000D03*
X+9330000Y-5000000D03*
X+9330000Y-4900000D03*
X+9330000Y-4800000D03*
X+9330000Y-4700000D03*
X+9330000Y-4600000D03*
X+9330000Y-4500000D03*
X+9330000Y-4400000D03*
X+9330000Y-4300000D03*
X+9330000Y-4200000D03*
X+9330000Y-4100000D03*
X+9330000Y-4000000D03*
X+9330000Y-3900000D03*
X+9330000Y-3800000D03*
X+9330000Y-3700000D03*
X+9330000Y-3600000D03*
X+9330000Y-3500000D03*
X+9330000Y-3400000D03*
X+9330000Y-3300000D03*
X+9330000Y-3200000D03*
X+9330000Y-3100000D03*
X+9330000Y-3000000D03*
X+9330000Y-2900000D03*
X+9330000Y-2800000D03*
X+9330000Y-2700000D03*
X+9330000Y-2600000D03*
X+9330000Y-2500000D03*
X+9330000Y-2400000D03*
X+9330000Y-2300000D03*
X+9330000Y-2200000D03*
X+9330000Y-2100000D03*
X+9330000Y-2000000D03*
X+9330000Y-1900000D03*
X+9330000Y-1800000D03*
X+9330000Y-1700000D03*
X+9330000Y-1600000D03*
X+9330000Y-1500000D03*
X+9330000Y-1400000D03*
X+9330000Y-1300000D03*
X+9330000Y-1200000D03*
X+9330000Y-1100000D03*
X+9330000Y-1000000D03*
X+9330000Y-900000D03*
X+9330000Y-800000D03*
X+9330000Y-700000D03*
X+9330000Y-600000D03*
X+9330000Y-500000D03*
X+9330000Y-400000D03*
X+9330000Y-300000D03*
X+9330000Y-200000D03*
X+9330000Y-100000D03*
X+9330000Y+0D03*
X-230000Y+230000D03*
X-120000Y+300000D03*
X-300000Y+120000D03*
X-230000Y-7230000D03*
X-310000Y-7120000D03*
X-140000Y-7300000D03*
X+9230000Y-7230000D03*
X+9310000Y-7120000D03*
X+9130000Y-7300000D03*
X+9230000Y+230000D03*
X+9130000Y+300000D03*
X+9310000Y+120000D03*
X+1000000Y-7330000D03*
X+1100000Y-7330000D03*
X+1200000Y-7330000D03*
X+1300000Y-7330000D03*
X+1400000Y-7330000D03*
X+1500000Y-7330000D03*
X+1600000Y-7330000D03*
X+1700000Y-7330000D03*
X+1800000Y-7330000D03*
X+1900000Y-7330000D03*
X+2000000Y-7330000D03*
X+2100000Y-7330000D03*
X+2200000Y-7330000D03*
X+2300000Y-7330000D03*
X+2400000Y-7330000D03*
X+2500000Y-7330000D03*
X+2600000Y-7330000D03*
X+2700000Y-7330000D03*
X+2800000Y-7330000D03*
X+2900000Y-7330000D03*
X+3000000Y-7330000D03*
X+3100000Y-7330000D03*
X+3200000Y-7330000D03*
X+3300000Y-7330000D03*
X+3400000Y-7330000D03*
X+3500000Y-7330000D03*
X+3600000Y-7330000D03*
X+3700000Y-7330000D03*
X+3800000Y-7330000D03*
X+3900000Y-7330000D03*
X+4000000Y-7330000D03*
X+4100000Y-7330000D03*
X+4200000Y-7330000D03*
X+4300000Y-7330000D03*
X+4400000Y-7330000D03*
X+4500000Y-7330000D03*
X+4600000Y-7330000D03*
X+4700000Y-7330000D03*
X+4800000Y-7330000D03*
X+4900000Y-7330000D03*
X+5000000Y-7330000D03*
X+5100000Y-7330000D03*
X+5200000Y-7330000D03*
X+5300000Y-7330000D03*
X+5400000Y-7330000D03*
X+5500000Y-7330000D03*
X+5600000Y-7330000D03*
X+5700000Y-7330000D03*
X+5800000Y-7330000D03*
X+5900000Y-7330000D03*
X+6000000Y-7330000D03*
X+6100000Y-7330000D03*
X+6200000Y-7330000D03*
X+6300000Y-7330000D03*
X+6400000Y-7330000D03*
X+6500000Y-7330000D03*
X+6600000Y-7330000D03*
X+6700000Y-7330000D03*
X+6800000Y-7330000D03*
X+6900000Y-7330000D03*
X+7000000Y-7330000D03*
X+7100000Y-7330000D03*
X+7200000Y-7330000D03*
X+7300000Y-7330000D03*
X+7400000Y-7330000D03*
X+7500000Y-7330000D03*
D54*
X+2333060Y-5194300D03*
X+2104460Y-5194300D03*
X+1875860Y-5194300D03*
X+1144000Y-5651840D03*
X+1144000Y-5423240D03*
X+1144000Y-5194640D03*
D51*
X+2668000Y-1638640D03*
X+2668000Y-622640D03*
D54*
X+5300000Y-191920D03*
X+4538000Y-191920D03*
D51*
X+760120Y-878840D03*
X+1014120Y-878840D03*
X+1268120Y-878840D03*
X+1776800Y-259080D03*
X+760800Y-259080D03*
X+1505430Y-2292550D03*
X+1505430Y-1276550D03*
X+757580Y+25400D03*
X+1773580Y+25400D03*
X+2340680Y-4561840D03*
X+2086680Y-4561840D03*
D58*
X+500000Y+330000D03*
X+400000Y+330000D03*
X+300000Y+330000D03*
X+200000Y+330000D03*
X+100000Y+330000D03*
X+0Y+330000D03*
X+400000Y-7330000D03*
X+300000Y-7330000D03*
X+200000Y-7330000D03*
X+100000Y-7330000D03*
X+0Y-7330000D03*
X+9330000Y-6200000D03*
X+9330000Y-6300000D03*
X+9330000Y-6400000D03*
X+9330000Y-6500000D03*
X+9330000Y-6600000D03*
X+9330000Y-6700000D03*
X+9330000Y-6800000D03*
X+9330000Y-6900000D03*
X-330000Y-6200000D03*
X-330000Y-6300000D03*
X-330000Y-6400000D03*
X-330000Y-6500000D03*
X-330000Y-6600000D03*
X-330000Y-6700000D03*
X-330000Y-6800000D03*
X-330000Y-6900000D03*
D51*
X+2664460Y-1894840D03*
X+2664460Y-2654300D03*
X+2664460Y-2913380D03*
M02*
